# xmcd
#
# Track frame offsets: 
#        150
#        24524
#        44119
#        68690
#        90188
#        115627
#        137913
#        151023
#        178380
#        206827
#
# Disc length: 2980 seconds
#
# Revision: 0
# Processed by: cddbd v1.5.2PL0 Copyright (c) Steve Scherf et al.
# Submitted via: ExactAudioCopy v0.99pb4
#
DISCID=840ba20a
DTITLE=Hugh Masekela - Colletions
DYEAR=2007
DGENRE=Soul
TTITLE0=Thanayi
TTITLE1=Mamoriri
TTITLE2=Stimela
TTITLE3=No More Cryin'
TTITLE4=Mama Ndoro
TTITLE5=Strawberries
TTITLE6=Grazing in the Grass
TTITLE7=Ashiko
TTITLE8=Chileshe
TTITLE9=Bone Thru The Nose
EXTD=
EXTT0=
EXTT1=
EXTT2=
EXTT3=
EXTT4=
EXTT5=
EXTT6=
EXTT7=
EXTT8=
EXTT9=
PLAYORDER=
